<?xml version="1.0" encoding="utf-8"?>
<!-- Generator: Adobe Illustrator 25.2.1, SVG Export Plug-In . SVG Version: 6.00 Build 0)  -->
<svg version="1.1" id="Layer_1" xmlns="http://www.w3.org/2000/svg" xmlns:xlink="http://www.w3.org/1999/xlink" x="0px" y="0px"
	 viewBox="0 0 600 480" style="enable-background:new 0 0 600 480;" xml:space="preserve">
<style type="text/css">
	.st0{fill:none;}
	.st1{fill:none;stroke:#808080;stroke-width:0.5;stroke-dasharray:2,4;}
	.st2{fill:none;stroke:#C6C6C6;stroke-width:0.5;}
	.st3{fill:none;stroke:#000000;}
	.st4{font-family:'ArialMT';}
	.st5{font-size:12px;}
	.st6{enable-background:new    ;}
	.st7{fill:none;stroke:#9400D3;stroke-width:2;}
	.st8{fill:none;stroke:#009E73;stroke-width:2;}
</style>
<desc>Produced by GNUPLOT 5.2 patchlevel 8</desc>
<rect y="0" class="st0" width="600" height="480"/>
<g>
	<path class="st1" d="M297.9,240"/>
</g>
<g>
	<path class="st2" d="M352.2,240v-2.3l-0.2-2.4l-0.2-2.3l-0.4-2.4l-0.5-2.3l-0.5-2.3l-0.7-2.3l-0.7-2.3l-0.9-2.2l-1-2.1l-1-2.2
		l-1.1-2l-1.3-2.1l-1.3-1.9l-1.4-2l-1.5-1.8l-1.6-1.8l-1.6-1.7l-1.7-1.6l-1.8-1.6l-1.8-1.5l-2-1.4l-1.9-1.3l-2.1-1.3l-2-1.1l-2.2-1
		l-2.1-1l-2.2-0.9l-2.3-0.7l-2.3-0.7l-2.3-0.5l-2.3-0.5l-2.4-0.4l-2.3-0.2l-2.4-0.2h-2.3h-2.4l-2.4,0.2l-2.3,0.2l-2.4,0.4l-2.3,0.5
		l-2.3,0.5l-2.3,0.7l-2.3,0.7l-2.2,0.9l-2.1,1l-2.2,1l-2,1.1l-2.1,1.3l-1.9,1.3l-2,1.4l-1.8,1.5l-1.8,1.6l-1.7,1.6l-1.6,1.7
		l-1.6,1.8l-1.5,1.8l-1.4,2l-1.3,1.9l-1.3,2.1l-1.1,2l-1,2.2l-1,2.1l-0.9,2.2l-0.7,2.3l-0.7,2.3l-0.5,2.3l-0.5,2.3l-0.4,2.4
		l-0.2,2.3l-0.2,2.4v2.3v2.4l0.2,2.4l0.2,2.3l0.4,2.4l0.5,2.3l0.5,2.3l0.7,2.3l0.7,2.3l0.9,2.2l1,2.1l1,2.2l1.1,2l1.3,2.1l1.3,1.9
		l1.4,2l1.5,1.8l1.6,1.8l1.6,1.7l1.7,1.6l1.8,1.6l1.8,1.5l2,1.4l1.9,1.3l2.1,1.3l2,1.1l2.2,1l2.1,1l2.2,0.9l2.3,0.7l2.3,0.7l2.3,0.5
		l2.3,0.5l2.4,0.4l2.3,0.2l2.4,0.2h2.4h2.3l2.4-0.2l2.3-0.2l2.4-0.4l2.3-0.5l2.3-0.5l2.3-0.7l2.3-0.7l2.2-0.9l2.1-1l2.2-1l2-1.1
		l2.1-1.3l1.9-1.3l2-1.4l1.8-1.5l1.8-1.6l1.7-1.6l1.6-1.7l1.6-1.8l1.5-1.8l1.4-2l1.3-1.9l1.3-2.1l1.1-2l1-2.2l1-2.1l0.9-2.2l0.7-2.3
		l0.7-2.3l0.5-2.3l0.5-2.3l0.4-2.4l0.2-2.3l0.2-2.4V240"/>
</g>
<g>
	<path class="st3" d="M349.8,223l-1.4-4.3 M349.8,223l1.4,4.3"/>
	<g transform="translate(352.2,261.9)">
		<text transform="matrix(0.9511 -0.309 0.309 0.9511 -6.7701 -14.4941)" class="st4 st5">0.04</text>
	</g>
</g>
<g>
	<path class="st2" d="M406.6,240l-0.1-4.7l-0.3-4.7l-0.5-4.7l-0.7-4.7l-1-4.7l-1.1-4.6l-1.3-4.6l-1.5-4.5l-1.8-4.4l-1.9-4.3
		l-2.1-4.3l-2.2-4.1l-2.5-4.1l-2.6-3.9l-2.9-3.9l-2.9-3.7l-3.2-3.5l-3.2-3.5l-3.5-3.2l-3.5-3.2l-3.7-2.9l-3.9-2.9l-3.9-2.6l-4.1-2.5
		l-4.1-2.2l-4.3-2.1l-4.3-1.9l-4.4-1.8l-4.5-1.5L326,135l-4.6-1.1l-4.7-1l-4.7-0.7l-4.7-0.5l-4.7-0.3l-4.7-0.1l-4.8,0.1l-4.7,0.3
		l-4.7,0.5l-4.7,0.7l-4.7,1l-4.6,1.1l-4.6,1.3l-4.5,1.5l-4.4,1.8l-4.3,1.9l-4.3,2.1l-4.1,2.2l-4.1,2.5l-3.9,2.6l-3.9,2.9l-3.7,2.9
		l-3.5,3.2l-3.5,3.2l-3.2,3.5l-3.2,3.5l-2.9,3.7l-2.9,3.9l-2.6,3.9l-2.5,4.1l-2.2,4.1l-2.1,4.3l-1.9,4.3l-1.8,4.4l-1.5,4.5l-1.3,4.6
		l-1.1,4.6l-1,4.7l-0.7,4.7l-0.5,4.7l-0.3,4.7l-0.1,4.7l0.1,4.8l0.3,4.7l0.5,4.7l0.7,4.7l1,4.7l1.1,4.6l1.3,4.6l1.5,4.5l1.8,4.4
		l1.9,4.3l2.1,4.3l2.2,4.1l2.5,4.1l2.6,3.9l2.9,3.9l2.9,3.7l3.2,3.5l3.2,3.5l3.5,3.2l3.5,3.2l3.7,2.9l3.9,2.9l3.9,2.6l4.1,2.5
		l4.1,2.2l4.3,2.1l4.3,1.9l4.4,1.8l4.5,1.5l4.6,1.3l4.6,1.1l4.7,1l4.7,0.7l4.7,0.5l4.7,0.3l4.8,0.1l4.7-0.1l4.7-0.3l4.7-0.5l4.7-0.7
		l4.7-1l4.6-1.1l4.6-1.3l4.5-1.5l4.4-1.8l4.3-1.9l4.3-2.1l4.1-2.2l4.1-2.5l3.9-2.6l3.9-2.9l3.7-2.9l3.5-3.2l3.5-3.2l3.2-3.5l3.2-3.5
		l2.9-3.7l2.9-3.9l2.6-3.9l2.5-4.1l2.2-4.1l2.1-4.3l1.9-4.3l1.8-4.4l1.5-4.5l1.3-4.6l1.1-4.6l1-4.7l0.7-4.7l0.5-4.7l0.3-4.7
		L406.6,240"/>
</g>
<g>
	<path class="st3" d="M401.5,206.2l-1.4-4.3 M401.5,206.2l1.4,4.3"/>
	<g transform="translate(406.6,261.9)">
		<text transform="matrix(0.9511 -0.309 0.309 0.9511 -9.4325 -31.3046)" class="st4 st5">0.08</text>
	</g>
</g>
<g>
	<path class="st2" d="M461,240l-0.1-7.1l-0.5-7.1l-0.8-7l-1.1-7.1l-1.4-7l-1.6-6.9l-2-6.8l-2.3-6.8l-2.6-6.6l-2.9-6.5l-3.1-6.4
		l-3.4-6.2l-3.7-6.1l-4-5.9l-4.2-5.8l-4.5-5.5l-4.7-5.4l-4.9-5.1l-5.1-4.9l-5.4-4.7l-5.5-4.5l-5.8-4.2l-5.9-4l-6.1-3.7l-6.2-3.4
		l-6.4-3.1l-6.5-2.9l-6.6-2.6l-6.8-2.3l-6.8-2l-6.9-1.6l-7-1.4l-7.1-1.1l-7-0.8L305,77l-7.1-0.1l-7.2,0.1l-7.1,0.5l-7,0.8l-7.1,1.1
		l-7,1.4l-6.9,1.6l-6.8,2l-6.8,2.3l-6.6,2.6l-6.5,2.9l-6.4,3.1l-6.2,3.4l-6.1,3.7l-5.9,4l-5.8,4.2l-5.5,4.5l-5.4,4.7l-5.1,4.9
		l-4.9,5.1l-4.7,5.4l-4.5,5.5l-4.2,5.8l-4,5.9l-3.7,6.1l-3.4,6.2l-3.1,6.4l-2.9,6.5l-2.6,6.6l-2.3,6.8l-2,6.8l-1.6,6.9l-1.4,7
		l-1.1,7.1l-0.8,7l-0.5,7.1l-0.1,7.1l0.1,7.2l0.5,7.1l0.8,7l1.1,7.1l1.4,7l1.6,6.9l2,6.8l2.3,6.8l2.6,6.6l2.9,6.5l3.1,6.4l3.4,6.2
		l3.7,6.1l4,5.9l4.2,5.8l4.5,5.5l4.7,5.4l4.9,5.1l5.1,4.9l5.4,4.7l5.5,4.5l5.8,4.2l5.9,4l6.1,3.7l6.2,3.4l6.4,3.1l6.5,2.9l6.6,2.6
		l6.8,2.3l6.8,2l6.9,1.6l7,1.4l7.1,1.1l7,0.8l7.1,0.5l7.2,0.1l7.1-0.1l7.1-0.5l7-0.8l7.1-1.1l7-1.4l6.9-1.6l6.8-2l6.8-2.3l6.6-2.6
		l6.5-2.9l6.4-3.1l6.2-3.4l6.1-3.7l5.9-4l5.8-4.2l5.5-4.5l5.4-4.7l5.1-4.9l4.9-5.1l4.7-5.4l4.5-5.5l4.2-5.8l4-5.9l3.7-6.1l3.4-6.2
		l3.1-6.4l2.9-6.5l2.6-6.6l2.3-6.8l2-6.8l1.6-6.9l1.4-7l1.1-7.1l0.8-7l0.5-7.1L461,240"/>
</g>
<g>
	<path class="st3" d="M453.2,189.3l-1.4-4.3 M453.2,189.3l1.4,4.3"/>
	<g transform="translate(461.0,261.9)">
		<text transform="matrix(0.9511 -0.309 0.309 0.9511 -12.0948 -48.1152)" class="st4 st5">0.12</text>
	</g>
</g>
<g>
	<path class="st2" d="M298.1,240l155.1-50.4 M298.1,240l155.1-50.4"/>
</g>
<g>
	<path class="st1" d="M298.1,240L143,189.6 M298.1,240L143,189.6"/>
</g>
<g>
	<path class="st2" d="M298.1,240L143,189.6 M298.1,240L143,189.6"/>
</g>
<g>
	<path class="st1" d="M298.1,240l-95.9,132 M298.1,240l-95.9,132"/>
</g>
<g>
	<path class="st2" d="M298.1,240l-95.9,132 M298.1,240l-95.9,132"/>
</g>
<g>
	<path class="st2" d="M298.1,240l95.9,132 M298.1,240l95.9,132"/>
</g>
<g>
	<path class="st2" d="M298.1,240l0-163.1 M298.1,240l0-163.1"/>
</g>
<g>
	<g transform="translate(434.7,58.0)">
		<text transform="matrix(1 0 0 1 -234.4426 399.7218)" class="st4 st5">Statement-non-opinion</text>
	</g>
</g>
<g>
	<g transform="translate(434.7,58.0)">
		<text transform="matrix(1 0 0 1 -181.5997 -3.7174)" class="st4 st5">within the given DA</text>
	</g>
</g>
<g>
	<g transform="translate(434.7,58.0)">
		<text transform="matrix(1 0 0 1 -408.4801 127.0678)" class="st6"><tspan x="0" y="0" class="st4 st5">in previous utterance</tspan><tspan x="38.4" y="14.4" class="st4 st5">by self</tspan></text>
	</g>
</g>
<g>
	<g transform="translate(434.7,58.0)">
		<text transform="matrix(1 0 0 1 -356.6235 319.7979)" class="st6"><tspan x="0" y="0" class="st4 st5">in previous utterance</tspan><tspan x="34" y="14.4" class="st4 st5">by other</tspan></text>
	</g>
</g>
<g>
	<g transform="translate(434.7,58.0)">
		<text transform="matrix(1 0 0 1 -26.5129 325.6065)" class="st6"><tspan x="0" y="0" class="st4 st5">in next utterance</tspan><tspan x="22.7" y="14.4" class="st4 st5">by other</tspan></text>
	</g>
</g>
<g>
	<g transform="translate(434.7,58.0)">
		<text transform="matrix(1 0 0 1 27.2327 127.2035)" class="st6"><tspan x="0" y="0" class="st4 st5">in next utterance</tspan><tspan x="27" y="14.4" class="st4 st5">by self</tspan></text>
	</g>
</g>
<g>
	<path class="st7" d="M330,454.8h44.2 M297.9,177.8L279.1,234l-0.3,32.3l44.6,8.9l2.2-44.2L297.9,177.8"/>
</g>
<g>
	<g transform="translate(434.7,76.0)">
		<text transform="matrix(1 0 0 1 -157.0326 365.6183)" class="st4 st5">Apology</text>
	</g>
</g>
<g>
	<path class="st8" d="M330.3,438.7h42.2 M297.9,67.9l-49.2,156.2l8.7,71.6l121.4,55.7l-48.2-122L297.9,67.9"/>
</g>
<g id="gnuplot_plot_3">
</g>
<g id="gnuplot_plot_4">
</g>
<g id="gnuplot_plot_5">
</g>
<g id="gnuplot_plot_6">
</g>
<g id="gnuplot_plot_7">
</g>
<g id="gnuplot_plot_8">
</g>
</svg>
