<?xml version="1.0" encoding="utf-8"?>
<!-- Generator: Adobe Illustrator 25.2.1, SVG Export Plug-In . SVG Version: 6.00 Build 0)  -->
<svg version="1.1" id="Layer_1" xmlns="http://www.w3.org/2000/svg" xmlns:xlink="http://www.w3.org/1999/xlink" x="0px" y="0px"
	 viewBox="0 0 400.8 406.1" style="enable-background:new 0 0 400.8 406.1;" xml:space="preserve">
<style type="text/css">
	.st0{fill:none;stroke:#808080;stroke-width:0.5;stroke-dasharray:2,4;}
	.st1{fill:none;stroke:#C6C6C6;stroke-width:0.5;}
	.st2{fill:none;stroke:#000000;}
	.st3{font-family:'ArialMT';}
	.st4{font-size:12.0004px;}
	.st5{font-size:12px;}
	.st6{enable-background:new    ;}
	.st7{fill:none;stroke:#9400D3;stroke-width:2;}
	.st8{fill:none;stroke:#009E73;stroke-width:2;}
</style>
<desc>Produced by GNUPLOT 5.2 patchlevel 8</desc>
<g>
	<g transform="translate(434.7,58.0)">
		<text transform="matrix(1 0 0 1 -773.9835 -10.9508)" class="st3 st5">in next utterance</text>
		<text transform="matrix(1 0 0 1 -746.9835 3.4493)" class="st3 st5">by self</text>
	</g>
</g>
<g id="gnuplot_plot_3">
</g>
<g id="gnuplot_plot_4">
</g>
<g id="gnuplot_plot_5">
</g>
<g id="gnuplot_plot_6">
</g>
<g id="gnuplot_plot_7">
</g>
<g id="gnuplot_plot_8">
</g>
<desc>Produced by GNUPLOT 5.2 patchlevel 8</desc>
<g>
	<path class="st0" d="M205.1,182.2"/>
</g>
<g>
	<path class="st1" d="M259.4,182.2v-2.3l-0.2-2.4l-0.2-2.3l-0.4-2.4l-0.5-2.3l-0.5-2.3l-0.7-2.3l-0.7-2.3l-0.9-2.2l-1-2.1l-1-2.2
		l-1.1-2l-1.3-2.1l-1.3-1.9l-1.4-2l-1.5-1.8l-1.6-1.8l-1.6-1.7l-1.7-1.6l-1.8-1.6l-1.8-1.5l-2-1.4l-1.9-1.3l-2.1-1.3l-2-1.1l-2.2-1
		l-2.1-1l-2.2-0.9l-2.3-0.7l-2.3-0.7l-2.3-0.5l-2.3-0.5l-2.4-0.4l-2.3-0.2l-2.4-0.2h-2.3h-2.4l-2.4,0.2l-2.3,0.2l-2.4,0.4l-2.3,0.5
		l-2.3,0.5l-2.3,0.7l-2.3,0.7l-2.2,0.9l-2.1,1l-2.2,1l-2,1.1l-2.1,1.3l-1.9,1.3l-2,1.4l-1.8,1.5l-1.8,1.6l-1.7,1.6l-1.6,1.7
		l-1.6,1.8l-1.5,1.8l-1.4,2l-1.3,1.9l-1.3,2.1l-1.1,2l-1,2.2l-1,2.1l-0.9,2.2l-0.7,2.3l-0.7,2.3l-0.5,2.3l-0.5,2.3l-0.4,2.4
		l-0.2,2.3l-0.2,2.4v2.3v2.4l0.2,2.4l0.2,2.3l0.4,2.4l0.5,2.3l0.5,2.3l0.7,2.3l0.7,2.3l0.9,2.2l1,2.1l1,2.2l1.1,2l1.3,2.1l1.3,1.9
		l1.4,2l1.5,1.8l1.6,1.8l1.6,1.7l1.7,1.6l1.8,1.6l1.8,1.5l2,1.4l1.9,1.3l2.1,1.3l2,1.1l2.2,1l2.1,1l2.2,0.9l2.3,0.7l2.3,0.7l2.3,0.5
		l2.3,0.5l2.4,0.4l2.3,0.2l2.4,0.2h2.4h2.3l2.4-0.2l2.3-0.2l2.4-0.4l2.3-0.5l2.3-0.5l2.3-0.7l2.3-0.7l2.2-0.9l2.1-1l2.2-1l2-1.1
		l2.1-1.3l1.9-1.3l2-1.4l1.8-1.5l1.8-1.6l1.7-1.6l1.6-1.7l1.6-1.8l1.5-1.8l1.4-2l1.3-1.9l1.3-2.1l1.1-2l1-2.2l1-2.1l0.9-2.2l0.7-2.3
		l0.7-2.3l0.5-2.3l0.5-2.3l0.4-2.4l0.2-2.3l0.2-2.4V182.2"/>
</g>
<g>
	<path class="st2" d="M257,165.2l-1.4-4.3 M257,165.2l1.4,4.3"/>
	<g transform="translate(352.2,261.9)">
		<text transform="matrix(0.9511 -0.309 0.309 0.9511 -99.5696 -72.2494)" class="st3 st4">0.04</text>
	</g>
</g>
<g>
	<path class="st1" d="M313.8,182.2l-0.1-4.7l-0.3-4.7l-0.5-4.7l-0.7-4.7l-1-4.7l-1.1-4.6l-1.3-4.6l-1.5-4.5l-1.8-4.4l-1.9-4.3
		l-2.1-4.3l-2.2-4.1l-2.5-4.1l-2.6-3.9l-2.9-3.9l-2.9-3.7l-3.2-3.5l-3.2-3.5l-3.5-3.2l-3.5-3.2l-3.7-2.9l-3.9-2.9l-3.9-2.6l-4.1-2.5
		l-4.1-2.2l-4.3-2.1l-4.3-1.9l-4.4-1.8l-4.5-1.5l-4.6-1.3l-4.6-1.1l-4.7-1l-4.7-0.7l-4.7-0.5l-4.7-0.3l-4.7-0.1l-4.8,0.1l-4.7,0.3
		l-4.7,0.5l-4.7,0.7l-4.7,1l-4.6,1.1l-4.6,1.3l-4.5,1.5l-4.4,1.8l-4.3,1.9l-4.3,2.1l-4.1,2.2l-4.1,2.5l-3.9,2.6l-3.9,2.9l-3.7,2.9
		l-3.5,3.2l-3.5,3.2l-3.2,3.5l-3.2,3.5l-2.9,3.7l-2.9,3.9l-2.6,3.9l-2.5,4.1l-2.2,4.1l-2.1,4.3l-1.9,4.3l-1.8,4.4l-1.5,4.5l-1.3,4.6
		l-1.1,4.6l-1,4.7l-0.7,4.7l-0.5,4.7l-0.3,4.7l-0.1,4.7l0.1,4.8l0.3,4.7l0.5,4.7l0.7,4.7l1,4.7l1.1,4.6l1.3,4.6l1.5,4.5l1.8,4.4
		l1.9,4.3l2.1,4.3l2.2,4.1l2.5,4.1l2.6,3.9l2.9,3.9l2.9,3.7l3.2,3.5l3.2,3.5l3.5,3.2l3.5,3.2l3.7,2.9l3.9,2.9l3.9,2.6l4.1,2.5
		l4.1,2.2l4.3,2.1l4.3,1.9l4.4,1.8l4.5,1.5l4.6,1.3l4.6,1.1l4.7,1l4.7,0.7l4.7,0.5l4.7,0.3l4.8,0.1l4.7-0.1l4.7-0.3l4.7-0.5l4.7-0.7
		l4.7-1l4.6-1.1l4.6-1.3l4.5-1.5l4.4-1.8l4.3-1.9l4.3-2.1l4.1-2.2l4.1-2.5l3.9-2.6l3.9-2.9l3.7-2.9l3.5-3.2l3.5-3.2l3.2-3.5l3.2-3.5
		l2.9-3.7l2.9-3.9l2.6-3.9l2.5-4.1l2.2-4.1l2.1-4.3l1.9-4.3l1.8-4.4l1.5-4.5l1.3-4.6l1.1-4.6l1-4.7l0.7-4.7l0.5-4.7l0.3-4.7
		L313.8,182.2"/>
</g>
<g>
	<path class="st2" d="M308.7,148.4l-1.4-4.3 M308.7,148.4l1.4,4.3"/>
	<g transform="translate(406.6,261.9)">
		<text transform="matrix(0.9511 -0.309 0.309 0.9511 -102.2319 -89.0603)" class="st3 st4">0.08</text>
	</g>
</g>
<g>
	<path class="st2" d="M360.4,131.5l-1.4-4.3 M360.4,131.5l1.4,4.3"/>
	<g transform="translate(461.0,261.9)">
		<text transform="matrix(0.9511 -0.309 0.309 0.9511 -104.8938 -105.8704)" class="st3 st4">0.12</text>
	</g>
</g>
<g>
	<path class="st1" d="M205.3,182.2l155.1-50.4 M205.3,182.2l155.1-50.4"/>
</g>
<g>
	<path class="st0" d="M205.3,182.2L50.2,131.8 M205.3,182.2L50.2,131.8"/>
</g>
<g>
	<path class="st1" d="M205.3,182.2L50.2,131.8 M205.3,182.2L50.2,131.8"/>
</g>
<g>
	<path class="st0" d="M205.3,182.2l-95.9,132 M205.3,182.2l-95.9,132"/>
</g>
<g>
	<path class="st1" d="M205.3,182.2l-95.9,132 M205.3,182.2l-95.9,132"/>
</g>
<g>
	<path class="st1" d="M205.3,182.2l95.9,132 M205.3,182.2l95.9,132"/>
</g>
<g>
	<path class="st1" d="M205.3,182.2V19.1 M205.3,182.2V19.1"/>
</g>
<g>
	<g transform="translate(434.7,58.0)">
		<text transform="matrix(1 0 0 1 -327.2425 341.9657)" class="st3 st5">Statement-non-opinion</text>
	</g>
</g>
<g>
	<g transform="translate(434.7,58.0)">
		<text transform="matrix(1 0 0 1 -218.5607 -38.8558)" class="st6"><tspan x="0" y="0" class="st3 st5">within </tspan><tspan x="0" y="14.4" class="st3 st5">the given DA</tspan></text>
	</g>
</g>
<g>
	<g transform="translate(434.7,58.0)">
		<text transform="matrix(1 0 0 1 -428.7877 48.6841)" class="st3 st5">in previous utterance</text>
		<text transform="matrix(1 0 0 1 -390.3877 63.0841)" class="st3 st5">by self</text>
	</g>
</g>
<g>
	<g transform="translate(434.7,58.0)">
		<text transform="matrix(1 0 0 1 -425.5001 228.4437)" class="st3 st5">in previous utterance</text>
		<text transform="matrix(1 0 0 1 -391.5001 242.8437)" class="st3 st5">by other</text>
	</g>
</g>
<g>
	<g transform="translate(434.7,58.0)">
		<text transform="matrix(1 0 0 1 -137.3499 229.4159)" class="st3 st5">in next utterance</text>
		<text transform="matrix(1 0 0 1 -114.65 243.8159)" class="st3 st5">by other</text>
	</g>
</g>
<g>
	<g transform="translate(434.7,58.0)">
		<text transform="matrix(1 0 0 1 -127.3701 43.8718)" class="st3 st5">in next utterance</text>
		<text transform="matrix(1 0 0 1 -100.3701 58.2719)" class="st3 st5">by self</text>
	</g>
</g>
<g>
	<path class="st7" d="M237.2,397h44.2 M205.1,120l-18.8,56.2l-0.3,32.3l44.6,8.9l2.2-44.2L205.1,120"/>
</g>
<g>
	<g transform="translate(434.7,76.0)">
		<text transform="matrix(1 0 0 1 -249.8326 307.8622)" class="st3 st5">Apology</text>
	</g>
</g>
<g>
	<path class="st8" d="M237.5,380.9h42.2 M205.1,10.1l-49.2,156.2l8.7,71.6L286,293.6l-48.2-122L205.1,10.1"/>
</g>
<g>
	<path class="st0" d="M-797.3,37.8"/>
</g>
<g>
	<path class="st1" d="M-743,37.8v-2.3l-0.2-2.4l-0.2-2.3l-0.4-2.4l-0.5-2.3l-0.5-2.3l-0.7-2.3l-0.7-2.3l-0.9-2.2l-1-2.1l-1-2.2
		l-1.1-2l-1.3-2.1l-1.3-1.9l-1.4-2l-1.5-1.8l-1.6-1.8l-1.6-1.7l-1.7-1.6l-1.8-1.6l-1.8-1.5l-2-1.4l-1.9-1.3l-2.1-1.3l-2-1.1l-2.2-1
		l-2.1-1l-2.2-0.9L-781-14l-2.3-0.7l-2.3-0.5l-2.3-0.5l-2.4-0.4l-2.3-0.2l-2.4-0.2h-2.3h-2.4l-2.4,0.2l-2.3,0.2l-2.4,0.4l-2.3,0.5
		l-2.3,0.5l-2.3,0.7l-2.3,0.7l-2.2,0.9l-2.1,1l-2.2,1l-2,1.1l-2.1,1.3l-1.9,1.3l-2,1.4l-1.8,1.5l-1.8,1.6l-1.7,1.6l-1.6,1.7
		l-1.6,1.8l-1.5,1.8l-1.4,2l-1.3,1.9l-1.3,2.1l-1.1,2l-1,2.2l-1,2.1l-0.9,2.2l-0.7,2.3l-0.7,2.3l-0.5,2.3l-0.5,2.3l-0.4,2.4
		l-0.2,2.3l-0.2,2.4v2.3v2.4l0.2,2.4l0.2,2.3l0.4,2.4l0.5,2.3l0.5,2.3l0.7,2.3l0.7,2.3l0.9,2.2l1,2.1l1,2.2l1.1,2l1.3,2.1l1.3,1.9
		l1.4,2l1.5,1.8l1.6,1.8l1.6,1.7l1.7,1.6l1.8,1.6l1.8,1.5l2,1.4l1.9,1.3l2.1,1.3l2,1.1l2.2,1l2.1,1l2.2,0.9l2.3,0.7l2.3,0.7l2.3,0.5
		l2.3,0.5l2.4,0.4l2.3,0.2l2.4,0.2h2.4h2.3l2.4-0.2l2.3-0.2l2.4-0.4l2.3-0.5l2.3-0.5l2.3-0.7l2.3-0.7l2.2-0.9l2.1-1l2.2-1l2-1.1
		l2.1-1.3l1.9-1.3l2-1.4l1.8-1.5l1.8-1.6l1.7-1.6l1.6-1.7l1.6-1.8l1.5-1.8l1.4-2l1.3-1.9l1.3-2.1l1.1-2l1-2.2l1-2.1l0.9-2.2l0.7-2.3
		l0.7-2.3l0.5-2.3l0.5-2.3l0.4-2.4l0.2-2.3l0.2-2.4V37.8"/>
</g>
<g>
	<path class="st2" d="M-745.4,20.8l-1.4-4.3 M-745.4,20.8l1.4,4.3"/>
	<g transform="translate(352.2,261.9)">
		<text transform="matrix(0.9511 -0.309 0.309 0.9511 -1101.9858 -216.6475)" class="st3 st4">0.04</text>
	</g>
</g>
<g>
	<path class="st1" d="M-688.6,37.8l-0.1-4.7l-0.3-4.7l-0.5-4.7l-0.7-4.7l-1-4.7l-1.1-4.6l-1.3-4.6l-1.5-4.5l-1.8-4.4l-1.9-4.3
		l-2.1-4.3l-2.2-4.1l-2.5-4.1l-2.6-3.9l-2.9-3.9l-2.9-3.7l-3.2-3.5l-3.2-3.5l-3.5-3.2l-3.5-3.2l-3.7-2.9l-3.9-2.9l-3.9-2.6l-4.1-2.5
		l-4.1-2.2l-4.3-2.1l-4.3-1.9l-4.4-1.8l-4.5-1.5l-4.6-1.3l-4.6-1.1l-4.7-1l-4.7-0.7l-4.7-0.5l-4.7-0.3l-4.7-0.1l-4.8,0.1l-4.7,0.3
		l-4.7,0.5l-4.7,0.7l-4.7,1l-4.6,1.1l-4.6,1.3l-4.5,1.5l-4.4,1.8l-4.3,1.9l-4.3,2.1l-4.1,2.2l-4.1,2.5l-3.9,2.6l-3.9,2.9l-3.7,2.9
		l-3.5,3.2l-3.5,3.2l-3.2,3.5l-3.2,3.5l-2.9,3.7l-2.9,3.9l-2.6,3.9l-2.5,4.1l-2.2,4.1l-2.1,4.3l-1.9,4.3l-1.8,4.4l-1.5,4.5l-1.3,4.6
		l-1.1,4.6l-1,4.7l-0.7,4.7l-0.5,4.7l-0.3,4.7l-0.1,4.7l0.1,4.8l0.3,4.7l0.5,4.7l0.7,4.7l1,4.7l1.1,4.6l1.3,4.6l1.5,4.5l1.8,4.4
		l1.9,4.3l2.1,4.3l2.2,4.1l2.5,4.1l2.6,3.9l2.9,3.9l2.9,3.7l3.2,3.5l3.2,3.5l3.5,3.2l3.5,3.2l3.7,2.9l3.9,2.9l3.9,2.6l4.1,2.5
		l4.1,2.2l4.3,2.1l4.3,1.9l4.4,1.8l4.5,1.5l4.6,1.3l4.6,1.1l4.7,1l4.7,0.7l4.7,0.5l4.7,0.3l4.8,0.1l4.7-0.1l4.7-0.3l4.7-0.5l4.7-0.7
		l4.7-1l4.6-1.1l4.6-1.3l4.5-1.5l4.4-1.8l4.3-1.9l4.3-2.1l4.1-2.2l4.1-2.5l3.9-2.6l3.9-2.9l3.7-2.9l3.5-3.2l3.5-3.2l3.2-3.5l3.2-3.5
		l2.9-3.7l2.9-3.9l2.6-3.9l2.5-4.1l2.2-4.1l2.1-4.3l1.9-4.3l1.8-4.4l1.5-4.5l1.3-4.6l1.1-4.6l1-4.7l0.7-4.7l0.5-4.7l0.3-4.7
		L-688.6,37.8"/>
</g>
<g>
	<path class="st2" d="M-693.7,4l-1.4-4.3 M-693.7,4l1.4,4.3"/>
	<g transform="translate(406.6,261.9)">
		<text transform="matrix(0.9511 -0.309 0.309 0.9511 -1104.6482 -233.4585)" class="st3 st4">0.08</text>
	</g>
</g>
<g>
	<path class="st2" d="M-642-12.9l-1.4-4.3 M-642-12.9l1.4,4.3"/>
	<g transform="translate(461.0,261.9)">
		<text transform="matrix(0.9511 -0.309 0.309 0.9511 -1107.3101 -250.2685)" class="st3 st4">0.12</text>
	</g>
</g>
<g>
	<path class="st1" d="M-797.1,37.8L-642-12.6 M-797.1,37.8L-642-12.6"/>
</g>
<g>
	<path class="st0" d="M-797.1,37.8l-155.1-50.4 M-797.1,37.8l-155.1-50.4"/>
</g>
<g>
	<path class="st1" d="M-797.1,37.8l-155.1-50.4 M-797.1,37.8l-155.1-50.4"/>
</g>
<g>
	<path class="st0" d="M-797.1,37.8l-95.9,132 M-797.1,37.8l-95.9,132"/>
</g>
<g>
	<path class="st1" d="M-797.1,37.8l-95.9,132 M-797.1,37.8l-95.9,132"/>
</g>
<g>
	<path class="st1" d="M-797.1,37.8l95.9,132 M-797.1,37.8l95.9,132"/>
</g>
<g>
	<path class="st1" d="M-797.1,37.8v-163.1 M-797.1,37.8v-163.1"/>
</g>
<g>
	<g transform="translate(434.7,58.0)">
		<text transform="matrix(1 0 0 1 -1329.6588 197.5676)" class="st3 st5">Statement-non-opinion</text>
	</g>
</g>
<g>
	<g transform="translate(434.7,58.0)">
		<text transform="matrix(1 0 0 1 -1220.9769 -183.254)" class="st6"><tspan x="0" y="0" class="st3 st5">within </tspan><tspan x="0" y="14.4" class="st3 st5">the given DA</tspan></text>
	</g>
</g>
<g>
	<g transform="translate(434.7,58.0)">
		<text transform="matrix(1 0 0 1 -1431.204 -95.7141)" class="st3 st5">in previous utterance</text>
		<text transform="matrix(1 0 0 1 -1392.804 -81.3141)" class="st3 st5">by self</text>
	</g>
</g>
<g>
	<g transform="translate(434.7,58.0)">
		<text transform="matrix(1 0 0 1 -1427.9164 84.0455)" class="st3 st5">in previous utterance</text>
		<text transform="matrix(1 0 0 1 -1393.9164 98.4455)" class="st3 st5">by other</text>
	</g>
</g>
<g>
	<g transform="translate(434.7,58.0)">
		<text transform="matrix(1 0 0 1 -1139.7661 85.0177)" class="st3 st5">in next utterance</text>
		<text transform="matrix(1 0 0 1 -1117.0662 99.4177)" class="st3 st5">by other</text>
	</g>
</g>
<g>
	<g transform="translate(434.7,58.0)">
		<text transform="matrix(1 0 0 1 -1129.7863 -100.5263)" class="st3 st5">in next utterance</text>
		<text transform="matrix(1 0 0 1 -1102.7863 -86.1263)" class="st3 st5">by self</text>
	</g>
</g>
<g>
	<path class="st7" d="M-765.2,252.6h44.2 M-797.3-24.4l-18.8,56.2l-0.3,32.3l44.6,8.9l2.2-44.2L-797.3-24.4"/>
</g>
<g>
	<g transform="translate(434.7,76.0)">
		<text transform="matrix(1 0 0 1 -1252.2488 163.464)" class="st3 st5">Apology</text>
	</g>
</g>
<g>
	<path class="st8" d="M-764.9,236.5h42.2 M-797.3-134.3l-49.2,156.2l8.7,71.6l121.4,55.7l-48.2-122L-797.3-134.3"/>
</g>
<g id="gnuplot_plot_3_1_">
</g>
<g id="gnuplot_plot_4_1_">
</g>
<g id="gnuplot_plot_5_1_">
</g>
<g id="gnuplot_plot_6_1_">
</g>
<g id="gnuplot_plot_7_1_">
</g>
<g id="gnuplot_plot_8_1_">
</g>
</svg>
